<?xml version="1.0"?>
<!-- Generated by SVGo -->
<svg width="120.202mm" height="98.202mm"
     viewBox="0.000 0.000 120.202 98.202"
     xmlns="http://www.w3.org/2000/svg" 
     xmlns:xlink="http://www.w3.org/1999/xlink">
<polygon points="110.202,5.001 110.594,5.016 110.984,5.062 111.369,5.139 111.747,5.245 112.115,5.381 112.471,5.545 112.814,5.737 113.140,5.955 113.449,6.198 113.737,6.465 114.004,6.753 114.247,7.062 114.465,7.388 114.657,7.731 114.821,8.087 114.957,8.455 115.063,8.833 115.140,9.218 115.186,9.608 115.202,10.001 115.202,88.202 115.186,88.594 115.140,88.984 115.063,89.369 114.957,89.747 114.821,90.115 114.657,90.471 114.465,90.814 114.247,91.140 114.004,91.449 113.737,91.737 113.449,92.004 113.140,92.247 112.814,92.465 112.471,92.657 112.115,92.821 111.747,92.957 111.369,93.063 110.984,93.140 110.594,93.186 110.201,93.202 10.001,93.202 9.608,93.186 9.218,93.140 8.833,93.063 8.455,92.957 8.087,92.821 7.731,92.657 7.388,92.465 7.062,92.247 6.753,92.004 6.465,91.737 6.198,91.449 5.955,91.140 5.737,90.814 5.545,90.471 5.381,90.115 5.245,89.747 5.139,89.369 5.062,88.984 5.016,88.594 5.000,88.201 5.001,10.001 5.016,9.608 5.062,9.218 5.139,8.833 5.245,8.455 5.381,8.087 5.545,7.731 5.737,7.388 5.955,7.062 6.198,6.753 6.465,6.465 6.753,6.198 7.062,5.955 7.388,5.737 7.731,5.545 8.087,5.381 8.455,5.245 8.833,5.139 9.218,5.062 9.608,5.016 10.001,5.000" style="fill:none;stroke-width:0.050000mm;stroke:black"/>
<polygon points="9.023,87.104 8.945,87.113 8.868,87.129 8.792,87.150 8.718,87.177 8.647,87.210 8.579,87.248 8.513,87.292 8.452,87.341 8.394,87.394 8.341,87.452 8.292,87.513 8.248,87.579 8.210,87.647 8.177,87.718 8.149,87.792 8.129,87.868 8.113,87.945 8.104,88.023 8.101,88.101 8.104,88.179 8.113,88.257 8.129,88.334 8.149,88.410 8.177,88.484 8.210,88.555 8.248,88.623 8.292,88.689 8.341,88.750 8.394,88.808 8.452,88.861 8.513,88.910 8.579,88.954 8.647,88.992 8.718,89.025 8.792,89.052 8.868,89.073 8.945,89.089 9.023,89.098 9.101,89.101 9.179,89.098 9.257,89.089 9.334,89.073 9.410,89.052 9.484,89.025 9.555,88.992 9.623,88.954 9.689,88.910 9.750,88.861 9.808,88.808 9.861,88.750 9.910,88.689 9.954,88.623 9.992,88.555 10.025,88.484 10.052,88.410 10.073,88.334 10.089,88.257 10.098,88.179 10.101,88.101 10.098,88.023 10.089,87.945 10.073,87.868 10.052,87.792 10.025,87.718 9.992,87.647 9.954,87.579 9.910,87.513 9.861,87.452 9.808,87.394 9.750,87.341 9.689,87.292 9.623,87.248 9.555,87.210 9.484,87.177 9.410,87.150 9.334,87.129 9.257,87.113 9.179,87.104 9.101,87.101" style="fill:none;stroke-width:0.050000mm;stroke:black"/>
<polygon points="110.023,87.104 109.945,87.113 109.868,87.129 109.792,87.150 109.718,87.177 109.647,87.210 109.579,87.248 109.513,87.292 109.452,87.341 109.394,87.394 109.341,87.452 109.292,87.513 109.248,87.579 109.210,87.647 109.177,87.718 109.150,87.792 109.129,87.868 109.113,87.945 109.104,88.023 109.101,88.101 109.104,88.179 109.113,88.257 109.129,88.334 109.150,88.410 109.177,88.484 109.210,88.555 109.248,88.623 109.292,88.689 109.341,88.750 109.394,88.808 109.452,88.861 109.513,88.910 109.579,88.954 109.647,88.992 109.718,89.025 109.792,89.052 109.868,89.073 109.945,89.089 110.023,89.098 110.101,89.101 110.179,89.098 110.257,89.089 110.334,89.073 110.410,89.052 110.484,89.025 110.555,88.992 110.623,88.954 110.689,88.910 110.750,88.861 110.808,88.808 110.861,88.750 110.910,88.689 110.954,88.623 110.992,88.555 111.025,88.484 111.052,88.410 111.073,88.334 111.089,88.257 111.098,88.179 111.101,88.101 111.098,88.023 111.089,87.945 111.073,87.868 111.052,87.792 111.025,87.718 110.992,87.647 110.954,87.579 110.910,87.513 110.861,87.452 110.808,87.394 110.750,87.341 110.689,87.292 110.623,87.248 110.555,87.210 110.484,87.177 110.410,87.150 110.334,87.129 110.257,87.113 110.179,87.104 110.101,87.101" style="fill:none;stroke-width:0.050000mm;stroke:black"/>
<polygon points="35.526,70.676 35.526,71.676 34.726,71.676 34.726,74.775 35.526,74.775 35.526,80.576 34.726,80.576 34.726,83.676 35.526,83.676 35.526,84.676 49.526,84.676 49.526,83.676 50.325,83.676 50.325,80.576 49.526,80.576 49.526,74.775 50.325,74.775 50.325,71.676 49.526,71.676 49.526,70.676" style="fill:none;stroke-width:0.050000mm;stroke:black"/>
<polygon points="54.576,70.676 54.576,71.676 53.776,71.676 53.776,74.775 54.576,74.775 54.576,80.576 53.776,80.576 53.776,83.676 54.576,83.676 54.576,84.676 68.576,84.676 68.576,83.676 69.376,83.676 69.376,80.576 68.576,80.576 68.576,74.775 69.376,74.775 69.376,71.676 68.576,71.676 68.576,70.676" style="fill:none;stroke-width:0.050000mm;stroke:black"/>
<polygon points="73.626,70.676 73.626,71.676 72.826,71.676 72.826,74.775 73.626,74.775 73.626,80.576 72.826,80.576 72.826,83.676 73.626,83.676 73.626,84.676 87.626,84.676 87.626,83.676 88.426,83.676 88.426,80.576 87.626,80.576 87.626,74.775 88.426,74.775 88.426,71.676 87.626,71.676 87.626,70.676" style="fill:none;stroke-width:0.050000mm;stroke:black"/>
<polygon points="92.676,70.676 92.676,71.676 91.876,71.676 91.876,74.775 92.676,74.775 92.676,80.576 91.876,80.576 91.876,83.676 92.676,83.676 92.676,84.676 106.676,84.676 106.676,83.676 107.476,83.676 107.476,80.576 106.676,80.576 106.676,74.775 107.476,74.775 107.476,71.676 106.676,71.676 106.676,70.676" style="fill:none;stroke-width:0.050000mm;stroke:black"/>
<polygon points="35.526,51.626 35.526,52.626 34.726,52.626 34.726,55.726 35.526,55.726 35.526,61.526 34.726,61.526 34.726,64.626 35.526,64.626 35.526,65.626 49.526,65.626 49.526,64.626 50.325,64.626 50.325,61.526 49.526,61.526 49.526,55.726 50.325,55.726 50.325,52.626 49.526,52.626 49.526,51.626" style="fill:none;stroke-width:0.050000mm;stroke:black"/>
<polygon points="54.576,51.626 54.576,52.626 53.776,52.626 53.776,55.726 54.576,55.726 54.576,61.526 53.776,61.526 53.776,64.626 54.576,64.626 54.576,65.626 68.576,65.626 68.576,64.626 69.376,64.626 69.376,61.526 68.576,61.526 68.576,55.726 69.376,55.726 69.376,52.626 68.576,52.626 68.576,51.626" style="fill:none;stroke-width:0.050000mm;stroke:black"/>
<polygon points="73.626,51.626 73.626,52.626 72.826,52.626 72.826,55.726 73.626,55.726 73.626,61.526 72.826,61.526 72.826,64.626 73.626,64.626 73.626,65.626 87.626,65.626 87.626,64.626 88.426,64.626 88.426,61.526 87.626,61.526 87.626,55.726 88.426,55.726 88.426,52.626 87.626,52.626 87.626,51.626" style="fill:none;stroke-width:0.050000mm;stroke:black"/>
<polygon points="92.676,51.626 92.676,52.626 91.876,52.626 91.876,55.726 92.676,55.726 92.676,61.526 91.876,61.526 91.876,64.626 92.676,64.626 92.676,65.626 106.676,65.626 106.676,64.626 107.476,64.626 107.476,61.526 106.676,61.526 106.676,55.726 107.476,55.726 107.476,52.626 106.676,52.626 106.676,51.626" style="fill:none;stroke-width:0.050000mm;stroke:black"/>
<polygon points="71.023,48.104 70.945,48.113 70.868,48.129 70.792,48.150 70.718,48.177 70.647,48.210 70.579,48.248 70.513,48.292 70.452,48.341 70.394,48.394 70.341,48.452 70.292,48.513 70.248,48.579 70.210,48.647 70.177,48.718 70.150,48.792 70.129,48.868 70.113,48.945 70.104,49.023 70.101,49.101 70.104,49.179 70.113,49.257 70.129,49.334 70.150,49.410 70.177,49.484 70.210,49.555 70.248,49.623 70.292,49.689 70.341,49.750 70.394,49.808 70.452,49.861 70.513,49.910 70.579,49.954 70.647,49.992 70.718,50.025 70.792,50.052 70.868,50.073 70.945,50.089 71.023,50.098 71.101,50.101 71.179,50.098 71.257,50.089 71.334,50.073 71.410,50.052 71.484,50.025 71.555,49.992 71.623,49.954 71.689,49.910 71.750,49.861 71.808,49.808 71.861,49.750 71.910,49.689 71.954,49.623 71.992,49.555 72.025,49.484 72.052,49.410 72.073,49.334 72.089,49.257 72.098,49.179 72.101,49.101 72.098,49.023 72.089,48.945 72.073,48.868 72.052,48.792 72.025,48.718 71.992,48.647 71.954,48.579 71.910,48.513 71.861,48.452 71.808,48.394 71.750,48.341 71.689,48.292 71.623,48.248 71.555,48.210 71.484,48.177 71.410,48.150 71.334,48.129 71.257,48.113 71.179,48.104 71.101,48.101" style="fill:none;stroke-width:0.050000mm;stroke:black"/>
<polygon points="32.023,48.104 31.945,48.113 31.868,48.129 31.792,48.150 31.718,48.177 31.647,48.210 31.579,48.248 31.513,48.292 31.452,48.341 31.394,48.394 31.341,48.452 31.292,48.513 31.248,48.579 31.210,48.647 31.177,48.718 31.150,48.792 31.129,48.868 31.113,48.945 31.104,49.023 31.101,49.101 31.104,49.179 31.113,49.257 31.129,49.334 31.150,49.410 31.177,49.484 31.210,49.555 31.248,49.623 31.292,49.689 31.341,49.750 31.394,49.808 31.452,49.861 31.513,49.910 31.579,49.954 31.647,49.992 31.718,50.025 31.792,50.052 31.868,50.073 31.945,50.089 32.023,50.098 32.101,50.101 32.178,50.098 32.257,50.089 32.334,50.073 32.410,50.052 32.483,50.025 32.555,49.992 32.623,49.954 32.689,49.910 32.750,49.861 32.808,49.808 32.861,49.750 32.910,49.689 32.954,49.623 32.992,49.555 33.025,49.484 33.052,49.410 33.073,49.334 33.089,49.257 33.098,49.179 33.101,49.101 33.098,49.023 33.089,48.945 33.073,48.868 33.052,48.792 33.025,48.718 32.992,48.647 32.954,48.579 32.910,48.513 32.861,48.452 32.808,48.394 32.750,48.341 32.689,48.292 32.623,48.248 32.555,48.210 32.483,48.177 32.410,48.150 32.334,48.129 32.257,48.113 32.178,48.104 32.101,48.101" style="fill:none;stroke-width:0.050000mm;stroke:black"/>
<polygon points="35.526,32.576 35.526,33.576 34.726,33.576 34.726,36.676 35.526,36.676 35.526,42.476 34.726,42.476 34.726,45.576 35.526,45.576 35.526,46.576 49.526,46.576 49.526,45.576 50.325,45.576 50.325,42.476 49.526,42.476 49.526,36.676 50.325,36.676 50.325,33.576 49.526,33.576 49.526,32.576" style="fill:none;stroke-width:0.050000mm;stroke:black"/>
<polygon points="54.576,32.576 54.576,33.576 53.776,33.576 53.776,36.676 54.576,36.676 54.576,42.476 53.776,42.476 53.776,45.576 54.576,45.576 54.576,46.576 68.576,46.576 68.576,45.576 69.376,45.576 69.376,42.476 68.576,42.476 68.576,36.676 69.376,36.676 69.376,33.576 68.576,33.576 68.576,32.576" style="fill:none;stroke-width:0.050000mm;stroke:black"/>
<polygon points="73.626,32.576 73.626,33.576 72.826,33.576 72.826,36.676 73.626,36.676 73.626,42.476 72.826,42.476 72.826,45.576 73.626,45.576 73.626,46.576 87.626,46.576 87.626,45.576 88.426,45.576 88.426,42.476 87.626,42.476 87.626,36.676 88.426,36.676 88.426,33.576 87.626,33.576 87.626,32.576" style="fill:none;stroke-width:0.050000mm;stroke:black"/>
<polygon points="92.676,32.576 92.676,33.576 91.876,33.576 91.876,36.676 92.676,36.676 92.676,42.476 91.876,42.476 91.876,45.576 92.676,45.576 92.676,46.576 106.676,46.576 106.676,45.576 107.476,45.576 107.476,42.476 106.676,42.476 106.676,36.676 107.476,36.676 107.476,33.576 106.676,33.576 106.676,32.576" style="fill:none;stroke-width:0.050000mm;stroke:black"/>
<polygon points="35.526,13.525 35.526,14.525 34.726,14.525 34.726,17.626 35.526,17.626 35.526,23.425 34.726,23.425 34.726,26.526 35.526,26.526 35.526,27.526 49.526,27.526 49.526,26.526 50.325,26.526 50.325,23.425 49.526,23.425 49.526,17.626 50.325,17.626 50.325,14.525 49.526,14.525 49.526,13.525" style="fill:none;stroke-width:0.050000mm;stroke:black"/>
<polygon points="54.576,13.525 54.576,14.525 53.776,14.525 53.776,17.626 54.576,17.626 54.576,23.425 53.776,23.425 53.776,26.526 54.576,26.526 54.576,27.526 68.576,27.526 68.576,26.526 69.376,26.526 69.376,23.425 68.576,23.425 68.576,17.626 69.376,17.626 69.376,14.525 68.576,14.525 68.576,13.525" style="fill:none;stroke-width:0.050000mm;stroke:black"/>
<polygon points="73.626,13.525 73.626,14.525 72.826,14.525 72.826,17.626 73.626,17.626 73.626,23.425 72.826,23.425 72.826,26.526 73.626,26.526 73.626,27.526 87.626,27.526 87.626,26.526 88.426,26.526 88.426,23.425 87.626,23.425 87.626,17.626 88.426,17.626 88.426,14.525 87.626,14.525 87.626,13.525" style="fill:none;stroke-width:0.050000mm;stroke:black"/>
<polygon points="92.676,13.525 92.676,14.525 91.876,14.525 91.876,17.626 92.676,17.626 92.676,23.425 91.876,23.425 91.876,26.526 92.676,26.526 92.676,27.526 106.676,27.526 106.676,26.526 107.476,26.526 107.476,23.425 106.676,23.425 106.676,17.626 107.476,17.626 107.476,14.525 106.676,14.525 106.676,13.525" style="fill:none;stroke-width:0.050000mm;stroke:black"/>
<polygon points="9.023,9.104 8.945,9.113 8.868,9.129 8.792,9.150 8.718,9.177 8.647,9.210 8.579,9.248 8.513,9.292 8.452,9.341 8.394,9.394 8.341,9.452 8.292,9.513 8.248,9.579 8.210,9.647 8.177,9.718 8.149,9.792 8.129,9.868 8.113,9.945 8.104,10.023 8.101,10.101 8.104,10.179 8.113,10.257 8.129,10.334 8.149,10.410 8.177,10.484 8.210,10.555 8.248,10.623 8.292,10.689 8.341,10.750 8.394,10.808 8.452,10.861 8.513,10.910 8.579,10.954 8.647,10.992 8.718,11.025 8.792,11.052 8.868,11.073 8.945,11.089 9.023,11.098 9.101,11.101 9.179,11.098 9.257,11.089 9.334,11.073 9.410,11.052 9.484,11.025 9.555,10.992 9.623,10.954 9.689,10.910 9.750,10.861 9.808,10.808 9.861,10.750 9.910,10.689 9.954,10.623 9.992,10.555 10.025,10.484 10.052,10.410 10.073,10.334 10.089,10.257 10.098,10.179 10.101,10.101 10.098,10.023 10.089,9.945 10.073,9.868 10.052,9.792 10.025,9.718 9.992,9.647 9.954,9.579 9.910,9.513 9.861,9.452 9.808,9.394 9.750,9.341 9.689,9.292 9.623,9.248 9.555,9.210 9.484,9.177 9.410,9.150 9.334,9.129 9.257,9.113 9.179,9.104 9.101,9.101" style="fill:none;stroke-width:0.050000mm;stroke:black"/>
<polygon points="110.023,9.104 109.945,9.113 109.868,9.129 109.792,9.150 109.718,9.177 109.647,9.210 109.579,9.248 109.513,9.292 109.452,9.341 109.394,9.394 109.341,9.452 109.292,9.513 109.248,9.579 109.210,9.647 109.177,9.718 109.150,9.792 109.129,9.868 109.113,9.945 109.104,10.023 109.101,10.101 109.104,10.179 109.113,10.257 109.129,10.334 109.150,10.410 109.177,10.484 109.210,10.555 109.248,10.623 109.292,10.689 109.341,10.750 109.394,10.808 109.452,10.861 109.513,10.910 109.579,10.954 109.647,10.992 109.718,11.025 109.792,11.052 109.868,11.073 109.945,11.089 110.023,11.098 110.101,11.101 110.179,11.098 110.257,11.089 110.334,11.073 110.410,11.052 110.484,11.025 110.555,10.992 110.623,10.954 110.689,10.910 110.750,10.861 110.808,10.808 110.861,10.750 110.910,10.689 110.954,10.623 110.992,10.555 111.025,10.484 111.052,10.410 111.073,10.334 111.089,10.257 111.098,10.179 111.101,10.101 111.098,10.023 111.089,9.945 111.073,9.868 111.052,9.792 111.025,9.718 110.992,9.647 110.954,9.579 110.910,9.513 110.861,9.452 110.808,9.394 110.750,9.341 110.689,9.292 110.623,9.248 110.555,9.210 110.484,9.177 110.410,9.150 110.334,9.129 110.257,9.113 110.179,9.104 110.101,9.101" style="fill:none;stroke-width:0.050000mm;stroke:black"/>
</svg>
